<mxfile host="app.diagrams.net" modified="2020-11-05T19:08:02.357Z" agent="5.0 (Macintosh; Intel Mac OS X 10_15_6) AppleWebKit/605.1.15 (KHTML, like Gecko) Version/13.1.2 Safari/605.1.15" etag="iCB1IT6MAHSCpaBmnlhk" version="13.9.1" type="github">
  <diagram id="AINGzZfc000tHIMZ7i5C" name="Page-1">
    <mxGraphModel dx="705" dy="696" grid="1" gridSize="10" guides="1" tooltips="1" connect="1" arrows="1" fold="1" page="1" pageScale="1" pageWidth="827" pageHeight="1169" math="0" shadow="0">
      <root>
        <mxCell id="0" />
        <mxCell id="1" parent="0" />
        <mxCell id="gF588Wvzwf4u7xKOkFqc-1" value="Pilot" style="rounded=0;whiteSpace=wrap;html=1;fontStyle=3;fontSize=15;" vertex="1" parent="1">
          <mxGeometry x="40" y="180" width="150" height="20" as="geometry" />
        </mxCell>
        <mxCell id="gF588Wvzwf4u7xKOkFqc-2" value="PEM" style="rounded=0;whiteSpace=wrap;html=1;fontStyle=3;fontSize=15;fillColor=#d5e8d4;strokeColor=#82b366;" vertex="1" parent="1">
          <mxGeometry x="40" y="410" width="150" height="30" as="geometry" />
        </mxCell>
        <mxCell id="gF588Wvzwf4u7xKOkFqc-3" value="Batrockets&amp;nbsp;" style="rounded=0;whiteSpace=wrap;html=1;fontSize=15;fontStyle=3;fillColor=#dae8fc;strokeColor=#6c8ebf;" vertex="1" parent="1">
          <mxGeometry x="40" y="280" width="150" height="30" as="geometry" />
        </mxCell>
        <mxCell id="gF588Wvzwf4u7xKOkFqc-42" style="edgeStyle=orthogonalEdgeStyle;rounded=0;orthogonalLoop=1;jettySize=auto;html=1;exitX=1;exitY=0.5;exitDx=0;exitDy=0;entryX=0;entryY=0.5;entryDx=0;entryDy=0;fontSize=13;fillColor=#dae8fc;strokeColor=#6c8ebf;" edge="1" parent="1" source="gF588Wvzwf4u7xKOkFqc-4" target="gF588Wvzwf4u7xKOkFqc-23">
          <mxGeometry relative="1" as="geometry">
            <Array as="points">
              <mxPoint x="235" y="340" />
              <mxPoint x="235" y="283" />
              <mxPoint x="260" y="283" />
            </Array>
          </mxGeometry>
        </mxCell>
        <mxCell id="gF588Wvzwf4u7xKOkFqc-4" value="N_backrockets" style="rounded=0;whiteSpace=wrap;html=1;fontSize=13;fillColor=#dae8fc;strokeColor=#6c8ebf;" vertex="1" parent="1">
          <mxGeometry x="40" y="310" width="150" height="60" as="geometry" />
        </mxCell>
        <mxCell id="gF588Wvzwf4u7xKOkFqc-6" value="pilot(Robin, Batman)" style="rounded=0;whiteSpace=wrap;html=1;fontSize=13;" vertex="1" parent="1">
          <mxGeometry x="40" y="200" width="150" height="60" as="geometry" />
        </mxCell>
        <mxCell id="gF588Wvzwf4u7xKOkFqc-7" value="N_PEM" style="rounded=0;whiteSpace=wrap;html=1;fontSize=15;fillColor=#d5e8d4;strokeColor=#82b366;" vertex="1" parent="1">
          <mxGeometry x="40" y="440" width="150" height="60" as="geometry" />
        </mxCell>
        <mxCell id="gF588Wvzwf4u7xKOkFqc-8" value="GAS (L)" style="rounded=0;whiteSpace=wrap;html=1;fontSize=15;fontStyle=3" vertex="1" parent="1">
          <mxGeometry x="40" y="535" width="150" height="25" as="geometry" />
        </mxCell>
        <mxCell id="gF588Wvzwf4u7xKOkFqc-9" value="L_gas_left" style="rounded=0;whiteSpace=wrap;html=1;fontSize=15;" vertex="1" parent="1">
          <mxGeometry x="40" y="560" width="150" height="60" as="geometry" />
        </mxCell>
        <mxCell id="gF588Wvzwf4u7xKOkFqc-10" value="Batmobile class" style="rounded=0;whiteSpace=wrap;html=1;fontSize=15;fontStyle=3;fillColor=#e1d5e7;strokeColor=#9673a6;" vertex="1" parent="1">
          <mxGeometry x="284" y="10" width="156" height="40" as="geometry" />
        </mxCell>
        <mxCell id="gF588Wvzwf4u7xKOkFqc-17" style="edgeStyle=orthogonalEdgeStyle;rounded=0;orthogonalLoop=1;jettySize=auto;html=1;exitX=0.5;exitY=1;exitDx=0;exitDy=0;fontSize=15;" edge="1" parent="1" source="gF588Wvzwf4u7xKOkFqc-11">
          <mxGeometry relative="1" as="geometry">
            <mxPoint x="115" y="170" as="targetPoint" />
          </mxGeometry>
        </mxCell>
        <mxCell id="gF588Wvzwf4u7xKOkFqc-11" value="Attributes" style="rounded=0;whiteSpace=wrap;html=1;fontSize=15;fontStyle=1;fillColor=#fff2cc;strokeColor=#d6b656;" vertex="1" parent="1">
          <mxGeometry x="40" y="80" width="150" height="40" as="geometry" />
        </mxCell>
        <mxCell id="gF588Wvzwf4u7xKOkFqc-19" style="edgeStyle=orthogonalEdgeStyle;rounded=0;orthogonalLoop=1;jettySize=auto;html=1;fontSize=15;" edge="1" parent="1" source="gF588Wvzwf4u7xKOkFqc-18">
          <mxGeometry relative="1" as="geometry">
            <mxPoint x="535" y="170" as="targetPoint" />
          </mxGeometry>
        </mxCell>
        <mxCell id="gF588Wvzwf4u7xKOkFqc-18" value="Methods" style="rounded=0;whiteSpace=wrap;html=1;fontSize=15;fontStyle=1;fillColor=#ffe6cc;strokeColor=#d79b00;" vertex="1" parent="1">
          <mxGeometry x="470" y="80" width="130" height="40" as="geometry" />
        </mxCell>
        <mxCell id="gF588Wvzwf4u7xKOkFqc-21" style="edgeStyle=orthogonalEdgeStyle;rounded=0;orthogonalLoop=1;jettySize=auto;html=1;fontSize=15;" edge="1" parent="1" source="gF588Wvzwf4u7xKOkFqc-20">
          <mxGeometry relative="1" as="geometry">
            <mxPoint x="340" y="170" as="targetPoint" />
          </mxGeometry>
        </mxCell>
        <mxCell id="gF588Wvzwf4u7xKOkFqc-20" value="Classes to interact" style="rounded=0;whiteSpace=wrap;html=1;fontSize=15;fontStyle=1;fillColor=#f8cecc;strokeColor=#b85450;" vertex="1" parent="1">
          <mxGeometry x="260" y="80" width="160" height="40" as="geometry" />
        </mxCell>
        <mxCell id="gF588Wvzwf4u7xKOkFqc-22" value="&lt;b&gt;&lt;i&gt;Joker&lt;/i&gt;&lt;/b&gt;" style="rounded=1;whiteSpace=wrap;html=1;fontSize=15;" vertex="1" parent="1">
          <mxGeometry x="280" y="180" width="120" height="50" as="geometry" />
        </mxCell>
        <mxCell id="gF588Wvzwf4u7xKOkFqc-41" style="edgeStyle=orthogonalEdgeStyle;rounded=0;orthogonalLoop=1;jettySize=auto;html=1;entryX=0.5;entryY=1;entryDx=0;entryDy=0;fontSize=13;" edge="1" parent="1" source="gF588Wvzwf4u7xKOkFqc-23" target="gF588Wvzwf4u7xKOkFqc-22">
          <mxGeometry relative="1" as="geometry" />
        </mxCell>
        <mxCell id="gF588Wvzwf4u7xKOkFqc-23" value="&lt;b&gt;&lt;i&gt;Joker Villain&lt;/i&gt;&lt;/b&gt;" style="rounded=1;whiteSpace=wrap;html=1;fontSize=15;" vertex="1" parent="1">
          <mxGeometry x="280" y="255" width="120" height="55" as="geometry" />
        </mxCell>
        <mxCell id="gF588Wvzwf4u7xKOkFqc-40" style="edgeStyle=orthogonalEdgeStyle;rounded=0;orthogonalLoop=1;jettySize=auto;html=1;fontSize=13;" edge="1" parent="1" source="gF588Wvzwf4u7xKOkFqc-24">
          <mxGeometry relative="1" as="geometry">
            <mxPoint x="340" y="320" as="targetPoint" />
          </mxGeometry>
        </mxCell>
        <mxCell id="gF588Wvzwf4u7xKOkFqc-24" value="&lt;b&gt;&lt;i&gt;Rocket&lt;/i&gt;&lt;/b&gt;" style="rounded=1;whiteSpace=wrap;html=1;fontSize=15;" vertex="1" parent="1">
          <mxGeometry x="280" y="370" width="120" height="30" as="geometry" />
        </mxCell>
        <mxCell id="gF588Wvzwf4u7xKOkFqc-25" value="&lt;b&gt;&lt;i&gt;PEM Pulse&lt;/i&gt;&lt;/b&gt;" style="rounded=1;whiteSpace=wrap;html=1;fontSize=15;" vertex="1" parent="1">
          <mxGeometry x="280" y="415" width="120" height="35" as="geometry" />
        </mxCell>
        <mxCell id="gF588Wvzwf4u7xKOkFqc-27" style="edgeStyle=orthogonalEdgeStyle;rounded=0;orthogonalLoop=1;jettySize=auto;html=1;exitX=0.5;exitY=1;exitDx=0;exitDy=0;fontSize=15;" edge="1" parent="1" source="gF588Wvzwf4u7xKOkFqc-25" target="gF588Wvzwf4u7xKOkFqc-25">
          <mxGeometry relative="1" as="geometry" />
        </mxCell>
        <mxCell id="gF588Wvzwf4u7xKOkFqc-29" value="&lt;i&gt;&lt;font style=&quot;font-size: 13px&quot;&gt;Accelerate&lt;/font&gt;&lt;/i&gt;" style="rounded=0;whiteSpace=wrap;html=1;fontSize=15;" vertex="1" parent="1">
          <mxGeometry x="456.25" y="210" width="153.75" height="60" as="geometry" />
        </mxCell>
        <mxCell id="gF588Wvzwf4u7xKOkFqc-30" value="Turbo" style="rounded=0;whiteSpace=wrap;html=1;fontSize=15;fontStyle=3" vertex="1" parent="1">
          <mxGeometry x="456.25" y="300" width="153.75" height="30" as="geometry" />
        </mxCell>
        <mxCell id="gF588Wvzwf4u7xKOkFqc-31" value="&lt;i style=&quot;font-size: 13px;&quot;&gt;Activate_turbo&lt;/i&gt;" style="rounded=0;whiteSpace=wrap;html=1;fontSize=13;" vertex="1" parent="1">
          <mxGeometry x="456.25" y="330" width="153.75" height="60" as="geometry" />
        </mxCell>
        <mxCell id="gF588Wvzwf4u7xKOkFqc-33" value="Rocket Launch" style="rounded=0;whiteSpace=wrap;html=1;fontSize=15;fontStyle=3;fillColor=#dae8fc;strokeColor=#6c8ebf;" vertex="1" parent="1">
          <mxGeometry x="456.25" y="415" width="153.75" height="30" as="geometry" />
        </mxCell>
        <mxCell id="gF588Wvzwf4u7xKOkFqc-34" value="Rocket_launch" style="rounded=0;whiteSpace=wrap;html=1;fontSize=13;fontStyle=2;fillColor=#dae8fc;strokeColor=#6c8ebf;" vertex="1" parent="1">
          <mxGeometry x="456.25" y="440" width="153.75" height="60" as="geometry" />
        </mxCell>
        <mxCell id="gF588Wvzwf4u7xKOkFqc-35" value="Accelerate" style="rounded=0;whiteSpace=wrap;html=1;fontSize=15;fontStyle=3" vertex="1" parent="1">
          <mxGeometry x="456.25" y="180" width="153.75" height="30" as="geometry" />
        </mxCell>
        <mxCell id="gF588Wvzwf4u7xKOkFqc-38" value="PEM Launch" style="rounded=0;whiteSpace=wrap;html=1;fontSize=15;fontStyle=3;fillColor=#d5e8d4;strokeColor=#82b366;" vertex="1" parent="1">
          <mxGeometry x="460" y="525" width="150" height="25" as="geometry" />
        </mxCell>
        <mxCell id="gF588Wvzwf4u7xKOkFqc-39" value="&lt;i&gt;&lt;font style=&quot;font-size: 13px&quot;&gt;PEM_launch&lt;/font&gt;&lt;/i&gt;" style="rounded=0;whiteSpace=wrap;html=1;fontSize=15;fillColor=#d5e8d4;strokeColor=#82b366;" vertex="1" parent="1">
          <mxGeometry x="460" y="550" width="150" height="60" as="geometry" />
        </mxCell>
        <mxCell id="gF588Wvzwf4u7xKOkFqc-46" value="" style="endArrow=classic;html=1;fontSize=13;entryX=0;entryY=0.75;entryDx=0;entryDy=0;fillColor=#dae8fc;strokeColor=#6c8ebf;" edge="1" parent="1" target="gF588Wvzwf4u7xKOkFqc-22">
          <mxGeometry width="50" height="50" relative="1" as="geometry">
            <mxPoint x="240" y="280" as="sourcePoint" />
            <mxPoint x="300" y="290" as="targetPoint" />
          </mxGeometry>
        </mxCell>
        <mxCell id="gF588Wvzwf4u7xKOkFqc-47" value="" style="curved=1;endArrow=classic;html=1;fontSize=13;exitX=0.433;exitY=-0.133;exitDx=0;exitDy=0;exitPerimeter=0;entryX=0;entryY=1;entryDx=0;entryDy=0;fillColor=#dae8fc;strokeColor=#6c8ebf;" edge="1" parent="1" source="gF588Wvzwf4u7xKOkFqc-24" target="gF588Wvzwf4u7xKOkFqc-22">
          <mxGeometry width="50" height="50" relative="1" as="geometry">
            <mxPoint x="250" y="340" as="sourcePoint" />
            <mxPoint x="300" y="290" as="targetPoint" />
            <Array as="points">
              <mxPoint x="300" y="340" />
              <mxPoint x="250" y="290" />
            </Array>
          </mxGeometry>
        </mxCell>
        <mxCell id="gF588Wvzwf4u7xKOkFqc-51" value="Weapon=FALSE" style="text;html=1;strokeColor=#82b366;fillColor=#d5e8d4;align=center;verticalAlign=middle;whiteSpace=wrap;rounded=0;fontSize=13;" vertex="1" parent="1">
          <mxGeometry x="430" y="500" width="20" height="20" as="geometry" />
        </mxCell>
        <mxCell id="gF588Wvzwf4u7xKOkFqc-54" value="KO=TRUE" style="text;html=1;strokeColor=#6c8ebf;fillColor=#dae8fc;align=center;verticalAlign=middle;whiteSpace=wrap;rounded=0;fontSize=13;" vertex="1" parent="1">
          <mxGeometry x="420" y="285" width="40" height="20" as="geometry" />
        </mxCell>
        <mxCell id="gF588Wvzwf4u7xKOkFqc-55" value="" style="rounded=0;whiteSpace=wrap;html=1;fontSize=13;strokeColor=#b85450;fillColor=none;" vertex="1" parent="1">
          <mxGeometry x="260" y="355" width="170" height="125" as="geometry" />
        </mxCell>
        <mxCell id="gF588Wvzwf4u7xKOkFqc-56" value="Ammunition" style="text;html=1;strokeColor=none;fillColor=none;align=center;verticalAlign=middle;whiteSpace=wrap;rounded=0;fontSize=13;fontColor=#FF6666;fontStyle=1" vertex="1" parent="1">
          <mxGeometry x="320" y="450" width="40" height="20" as="geometry" />
        </mxCell>
        <mxCell id="gF588Wvzwf4u7xKOkFqc-60" value="" style="curved=1;endArrow=classic;html=1;fontSize=13;exitX=0;exitY=0.25;exitDx=0;exitDy=0;horizontal=0;fontColor=#FF6666;fillColor=#f8cecc;strokeColor=#b85450;" edge="1" parent="1" source="gF588Wvzwf4u7xKOkFqc-10" target="gF588Wvzwf4u7xKOkFqc-55">
          <mxGeometry width="50" height="50" relative="1" as="geometry">
            <mxPoint x="250" y="340" as="sourcePoint" />
            <mxPoint x="300" y="290" as="targetPoint" />
            <Array as="points">
              <mxPoint x="180" y="280" />
              <mxPoint x="260" y="350" />
              <mxPoint x="250" y="290" />
            </Array>
          </mxGeometry>
        </mxCell>
        <mxCell id="gF588Wvzwf4u7xKOkFqc-63" value="" style="endArrow=classic;html=1;fontSize=13;fontColor=#FF6666;entryX=0.875;entryY=1.036;entryDx=0;entryDy=0;entryPerimeter=0;exitX=0;exitY=0.25;exitDx=0;exitDy=0;fillColor=#d5e8d4;strokeColor=#82b366;" edge="1" parent="1" source="gF588Wvzwf4u7xKOkFqc-38" target="gF588Wvzwf4u7xKOkFqc-23">
          <mxGeometry width="50" height="50" relative="1" as="geometry">
            <mxPoint x="270" y="340" as="sourcePoint" />
            <mxPoint x="320" y="290" as="targetPoint" />
          </mxGeometry>
        </mxCell>
        <mxCell id="gF588Wvzwf4u7xKOkFqc-64" value="" style="endArrow=classic;html=1;fontSize=13;fontColor=#FF6666;exitX=0;exitY=0.25;exitDx=0;exitDy=0;entryX=0.9;entryY=1.1;entryDx=0;entryDy=0;entryPerimeter=0;fillColor=#d5e8d4;strokeColor=#82b366;" edge="1" parent="1" source="gF588Wvzwf4u7xKOkFqc-38" target="gF588Wvzwf4u7xKOkFqc-22">
          <mxGeometry width="50" height="50" relative="1" as="geometry">
            <mxPoint x="270" y="340" as="sourcePoint" />
            <mxPoint x="320" y="290" as="targetPoint" />
          </mxGeometry>
        </mxCell>
        <mxCell id="gF588Wvzwf4u7xKOkFqc-67" value="" style="endArrow=classic;html=1;fontSize=13;fontColor=#FF6666;entryX=1;entryY=0.75;entryDx=0;entryDy=0;fillColor=#dae8fc;strokeColor=#6c8ebf;" edge="1" parent="1" target="gF588Wvzwf4u7xKOkFqc-22">
          <mxGeometry width="50" height="50" relative="1" as="geometry">
            <mxPoint x="460" y="410" as="sourcePoint" />
            <mxPoint x="320" y="290" as="targetPoint" />
          </mxGeometry>
        </mxCell>
        <mxCell id="gF588Wvzwf4u7xKOkFqc-68" value="" style="endArrow=classic;html=1;fontSize=13;fontColor=#FF6666;entryX=0.942;entryY=1.073;entryDx=0;entryDy=0;entryPerimeter=0;exitX=0;exitY=0;exitDx=0;exitDy=0;fillColor=#dae8fc;strokeColor=#6c8ebf;" edge="1" parent="1" source="gF588Wvzwf4u7xKOkFqc-33" target="gF588Wvzwf4u7xKOkFqc-23">
          <mxGeometry width="50" height="50" relative="1" as="geometry">
            <mxPoint x="450" y="410" as="sourcePoint" />
            <mxPoint x="320" y="290" as="targetPoint" />
          </mxGeometry>
        </mxCell>
        <mxCell id="gF588Wvzwf4u7xKOkFqc-70" value="" style="endArrow=classic;html=1;fontSize=13;fontColor=#FF6666;entryX=0.4;entryY=-0.075;entryDx=0;entryDy=0;entryPerimeter=0;exitX=1;exitY=0.5;exitDx=0;exitDy=0;" edge="1" parent="1" source="gF588Wvzwf4u7xKOkFqc-10" target="gF588Wvzwf4u7xKOkFqc-18">
          <mxGeometry width="50" height="50" relative="1" as="geometry">
            <mxPoint x="450" y="30" as="sourcePoint" />
            <mxPoint x="500" y="50" as="targetPoint" />
          </mxGeometry>
        </mxCell>
        <mxCell id="gF588Wvzwf4u7xKOkFqc-72" value="" style="endArrow=classic;html=1;fontSize=13;fontColor=#FF6666;entryX=0.887;entryY=-0.075;entryDx=0;entryDy=0;entryPerimeter=0;" edge="1" parent="1" target="gF588Wvzwf4u7xKOkFqc-11">
          <mxGeometry width="50" height="50" relative="1" as="geometry">
            <mxPoint x="280" y="30" as="sourcePoint" />
            <mxPoint x="190" y="80" as="targetPoint" />
          </mxGeometry>
        </mxCell>
        <mxCell id="gF588Wvzwf4u7xKOkFqc-75" value="" style="endArrow=classic;html=1;fontSize=13;fontColor=#FF6666;entryX=0;entryY=0.25;entryDx=0;entryDy=0;strokeColor=#0000CC;" edge="1" parent="1" source="gF588Wvzwf4u7xKOkFqc-55" target="gF588Wvzwf4u7xKOkFqc-34">
          <mxGeometry width="50" height="50" relative="1" as="geometry">
            <mxPoint x="270" y="340" as="sourcePoint" />
            <mxPoint x="320" y="290" as="targetPoint" />
          </mxGeometry>
        </mxCell>
        <mxCell id="gF588Wvzwf4u7xKOkFqc-76" value="" style="endArrow=classic;html=1;fontSize=13;fontColor=#FF6666;entryX=0;entryY=0.25;entryDx=0;entryDy=0;strokeColor=#336600;" edge="1" parent="1" target="gF588Wvzwf4u7xKOkFqc-39">
          <mxGeometry width="50" height="50" relative="1" as="geometry">
            <mxPoint x="380" y="480" as="sourcePoint" />
            <mxPoint x="400" y="640" as="targetPoint" />
          </mxGeometry>
        </mxCell>
        <mxCell id="gF588Wvzwf4u7xKOkFqc-77" value="" style="endArrow=classic;html=1;fontSize=13;fontColor=#FF6666;exitX=0.75;exitY=1;exitDx=0;exitDy=0;strokeColor=#6600CC;" edge="1" parent="1" source="gF588Wvzwf4u7xKOkFqc-10" target="gF588Wvzwf4u7xKOkFqc-55">
          <mxGeometry width="50" height="50" relative="1" as="geometry">
            <mxPoint x="270" y="340" as="sourcePoint" />
            <mxPoint x="320" y="290" as="targetPoint" />
          </mxGeometry>
        </mxCell>
      </root>
    </mxGraphModel>
  </diagram>
</mxfile>
